<?xml version="1.0" standalone="no"?>
<!DOCTYPE svg PUBLIC "-//W3C//DTD SVG 20010904//EN"
 "http://www.w3.org/TR/2001/REC-SVG-20010904/DTD/svg10.dtd">
<svg version="1.0" xmlns="http://www.w3.org/2000/svg"
 width="420.000000pt" height="420.000000pt" viewBox="0 0 420.000000 420.000000"
 preserveAspectRatio="xMidYMid meet">
<metadata>
Created by potrace 1.14, written by Peter Selinger 2001-2017
</metadata>
<g transform="translate(0.000000,420.000000) scale(0.100000,-0.100000)"
fill="#000000" stroke="none">
<path d="M97 4123 c-4 -3 -7 -933 -7 -2065 l0 -2058 63 0 62 0 23 94 c53 225
142 452 244 622 110 186 327 442 410 485 84 43 93 9 12 -46 -164 -113 -414
-490 -528 -799 -29 -76 -106 -334 -106 -353 0 -2 22 -3 48 -3 l49 0 -11 50
c-13 65 0 105 34 105 19 0 26 -7 34 -35 13 -47 11 -46 46 -16 17 14 35 26 40
26 5 0 15 3 24 6 13 5 16 -2 16 -38 0 -24 -7 -53 -15 -64 -21 -28 -18 -34 15
-34 27 0 31 4 45 58 121 433 209 638 353 830 61 81 106 116 178 138 67 20 180
18 224 -4 60 -30 135 -182 154 -315 10 -66 -7 -62 -85 20 -35 36 -94 96 -131
133 -38 36 -68 71 -68 78 0 8 18 12 49 12 53 0 45 7 118 -106 11 -17 12 -16
12 9 1 33 -19 75 -48 101 -27 24 -180 35 -245 16 -102 -28 -243 -233 -341
-494 -37 -101 -117 -370 -130 -438 -9 -45 10 -53 26 -10 l11 27 12 -30 13 -30
11 40 c7 22 12 81 12 132 0 50 5 95 10 98 6 4 10 -36 10 -112 0 -106 2 -120
20 -136 26 -22 60 -22 60 -1 0 9 -11 29 -24 45 -24 28 -25 33 -19 137 3 59 7
109 9 111 9 10 13 -11 20 -107 4 -56 10 -102 14 -102 10 0 20 64 20 133 0 38
4 56 10 52 7 -4 10 -52 8 -128 -2 -69 1 -129 7 -137 12 -19 23 45 24 147 1 75
8 106 21 98 4 -3 5 -63 2 -135 -4 -112 -3 -130 10 -130 11 0 17 16 22 60 5 46
12 62 28 71 29 16 44 -2 25 -32 -8 -13 -18 -41 -21 -61 -6 -31 -4 -38 9 -38 8
0 21 12 27 28 l12 27 4 -28 c2 -15 9 -27 17 -27 10 0 12 12 8 55 -5 51 -4 55
21 66 19 9 26 20 26 39 0 19 6 29 20 33 16 4 20 -2 26 -40 4 -25 4 -69 0 -99
l-6 -54 52 0 53 0 -35 18 c-39 19 -50 51 -39 115 13 73 28 64 36 -22 3 -34 9
-61 13 -61 9 0 20 51 20 92 0 17 4 27 10 23 6 -3 10 -21 10 -38 1 -31 1 -31
16 -12 8 11 19 26 24 34 7 13 12 12 33 -2 34 -22 44 -74 23 -116 l-17 -31 29
0 c28 0 30 3 36 53 3 28 6 77 6 107 0 53 3 60 67 144 38 49 81 98 96 110 26
19 30 19 55 5 16 -9 41 -42 61 -82 29 -57 35 -79 35 -135 1 -60 -3 -74 -37
-135 l-38 -67 763 0 763 0 17 40 c18 43 48 57 94 46 18 -5 31 -19 42 -46 l17
-40 428 0 427 0 0 269 0 269 -27 5 c-16 3 -48 20 -71 39 -24 18 -57 43 -73 55
-16 12 -63 29 -104 39 -79 19 -93 35 -22 27 86 -10 113 -23 231 -113 48 -37
66 -38 66 -5 0 16 -6 25 -15 25 -9 0 -15 9 -15 25 0 16 6 25 15 25 27 0 18 56
-12 80 -37 29 -58 22 -60 -18 -1 -19 -3 -36 -6 -38 -2 -3 -36 11 -75 29 -39
19 -81 37 -92 40 -21 5 -21 7 -5 37 10 19 14 42 10 57 -4 19 8 46 56 123 l63
98 65 -18 c36 -10 68 -16 71 -13 3 3 1 7 -5 9 -33 12 -75 46 -75 60 0 14 7 15
40 10 32 -5 40 -3 40 9 0 8 -4 15 -8 15 -5 0 -16 6 -26 13 -21 16 -12 47 15
47 17 0 19 8 19 65 0 65 0 65 -20 45 -59 -59 -162 25 -116 96 30 45 77 51 120
15 17 -15 18 -14 12 44 -4 33 -6 74 -6 90 1 17 3 180 5 364 l5 334 -50 53
c-28 29 -50 56 -50 60 0 6 58 -2 86 -13 10 -4 14 4 14 29 0 27 -7 39 -32 58
-29 21 -36 22 -82 13 -56 -12 -86 -3 -86 25 0 9 -11 41 -25 71 -14 30 -23 57
-19 60 3 3 28 -6 55 -22 27 -15 54 -27 59 -27 22 0 -40 97 -78 124 -22 15 -50
39 -63 53 -24 27 -15 24 31 -8 34 -25 150 -37 150 -17 0 8 -18 23 -40 33 -22
10 -47 26 -56 36 -16 18 -15 19 24 19 23 0 42 3 42 8 0 4 -24 26 -54 50 -37
29 -64 42 -85 42 -17 0 -31 4 -31 9 0 20 37 36 83 36 28 0 52 5 53 10 6 16
-93 65 -130 65 -19 0 -60 14 -91 30 -31 17 -63 30 -71 30 -10 0 -10 7 2 36 22
53 20 109 -7 166 -19 41 -21 54 -12 76 6 15 20 50 31 77 11 28 35 112 53 187
27 115 30 139 19 153 -7 9 -46 31 -86 50 -79 36 -202 103 -354 194 l-95 56
448 3 447 2 0 25 0 25 -2048 0 c-1127 0 -2052 -3 -2055 -7z m2839 -53 c-75
-23 -326 -42 -479 -38 l-159 5 -115 -99 c-131 -113 -221 -181 -275 -209 -21
-11 -38 -25 -38 -33 0 -7 28 -37 62 -67 80 -69 171 -208 191 -292 9 -34 28
-109 43 -167 43 -166 43 -180 -2 -230 -21 -23 -59 -52 -85 -66 -40 -20 -50
-31 -59 -63 -5 -21 -8 -45 -6 -52 19 -62 18 -68 -21 -78 -72 -20 -98 -44 -141
-133 -22 -45 -52 -94 -66 -107 -28 -26 -112 -61 -356 -148 -85 -30 -166 -65
-179 -76 -13 -12 -32 -42 -43 -67 -13 -31 -57 -82 -142 -165 -94 -92 -140
-147 -199 -237 -107 -164 -229 -313 -281 -343 -31 -18 -57 -25 -94 -25 -28 0
-62 -4 -75 -9 -29 -11 -73 -79 -188 -291 l-84 -155 -3 1565 c-1 861 0 1571 3
1578 3 9 295 12 1412 11 807 0 1396 -4 1379 -9z m154 -477 c43 -8 106 -71 131
-130 11 -25 24 -91 30 -147 8 -77 16 -112 36 -146 50 -87 54 -100 62 -179 6
-52 16 -91 30 -114 15 -25 21 -51 21 -93 0 -33 5 -78 10 -101 6 -27 6 -51 0
-67 -21 -56 -133 -152 -200 -171 -20 -6 -13 5 35 56 61 64 56 63 -31 -4 -119
-91 -263 -137 -387 -122 -103 11 -128 27 -232 145 -165 189 -205 263 -261 479
-14 53 -45 139 -69 191 -24 52 -46 113 -50 135 -5 36 -3 44 26 73 73 75 324
170 500 191 92 10 305 13 349 4z m196 -32 c23 -10 54 -36 70 -56 24 -32 29
-49 32 -111 3 -53 -1 -87 -13 -123 -11 -29 -15 -56 -11 -67 7 -18 9 -17 17 4
6 17 15 22 31 20 25 -3 34 -32 24 -74 -5 -20 -13 -24 -45 -24 -47 0 -86 28
-100 73 -6 17 -15 75 -20 128 -6 62 -19 120 -36 163 -36 90 -26 102 51 67z
m168 -115 c8 -28 17 -72 21 -98 6 -46 5 -48 -18 -48 -24 0 -25 4 -31 73 -3 39
-8 90 -12 112 -6 36 -5 38 10 26 9 -7 23 -37 30 -65z m55 -11 c6 -24 11 -61
11 -82 0 -28 3 -34 10 -23 5 8 10 35 10 60 0 33 3 41 10 30 22 -35 5 -120 -24
-120 -17 0 -25 20 -37 85 -4 28 -11 66 -15 85 -6 31 -5 33 8 22 9 -7 21 -32
27 -57z m156 -91 c-15 -24 -48 -31 -72 -16 -16 10 -27 78 -14 87 7 4 14 -6 18
-27 l7 -33 8 33 c11 43 26 41 30 -5 l4 -38 8 30 c14 55 20 61 24 27 2 -19 -3
-44 -13 -58z m-1405 -261 c12 -66 12 -74 -6 -100 l-19 -28 -6 60 c-3 33 -15
89 -27 125 -28 86 -35 127 -26 142 12 19 70 -117 84 -199z m1383 183 c31 -29
42 -64 34 -113 -6 -33 -20 -52 -39 -53 -5 0 -8 20 -8 44 0 25 -4 55 -9 68 -16
43 -21 78 -13 78 5 0 21 -11 35 -24z m82 -1 c27 -26 34 -80 15 -116 -15 -27
-30 -23 -30 9 0 15 -7 45 -15 67 -25 71 -14 85 30 40z m-207 -26 c25 -26 34
-72 22 -104 -12 -33 -30 -32 -30 1 0 23 -1 24 -16 10 -23 -24 -27 -20 -20 23
3 22 2 51 -4 65 -8 22 -7 26 10 26 11 0 28 -9 38 -21z m70 -28 c15 -47 15 -77
2 -102 -19 -35 -26 -20 -25 61 0 44 3 80 6 80 3 0 11 -17 17 -39z m-131 -151
c58 -34 93 -38 189 -24 95 14 139 10 130 -12 -3 -7 -1 -16 4 -19 15 -9 12 -25
-5 -25 -9 0 -12 -6 -8 -16 6 -15 -7 -16 -133 -12 -117 4 -146 8 -181 26 -41
21 -73 64 -73 97 0 19 26 14 77 -15z m517 -73 c15 -11 12 -12 -23 -9 -23 2
-38 8 -35 13 8 13 37 11 58 -4z m-1655 -41 c16 -63 14 -91 -8 -134 -25 -48
-58 -78 -118 -108 -41 -20 -44 -23 -22 -24 15 0 49 16 75 35 80 57 84 59 84
35 0 -43 -85 -100 -150 -100 -42 0 -100 26 -100 44 0 26 36 54 77 61 60 10 92
25 119 58 28 33 25 50 -5 23 -12 -11 -47 -21 -88 -26 -38 -5 -81 -14 -97 -19
-36 -14 -36 -14 -36 10 0 32 52 74 109 87 63 14 97 36 117 73 20 40 30 36 43
-15z m1151 -6 c50 -22 96 -33 171 -41 105 -10 171 -35 184 -67 5 -15 -4 -14
-50 3 -43 17 111 -127 161 -150 55 -25 79 -47 42 -38 -91 21 -105 28 -162 83
-34 32 -73 63 -86 68 -14 5 -68 13 -120 17 -111 9 -162 26 -190 65 -21 29 -38
90 -25 90 3 0 37 -14 75 -30z m321 -30 c13 -10 18 -19 11 -20 -16 0 -82 27
-82 34 0 14 50 4 71 -14z m203 -45 c4 -12 -4 -15 -46 -15 -44 0 -49 2 -38 15
7 8 27 15 45 15 20 0 35 -6 39 -15z m-30 -71 c10 -25 -1 -29 -14 -5 -6 12 -7
21 -1 21 5 0 12 -7 15 -16z m-420 -53 c51 -48 77 -64 131 -80 37 -12 82 -21
100 -21 100 0 150 -41 189 -156 34 -102 19 -97 -63 22 -37 52 -85 75 -186 86
-44 5 -99 13 -123 17 -31 6 -41 6 -33 -2 36 -36 -28 -30 -67 6 -35 32 -52 71
-52 116 0 89 19 91 104 12z m192 14 c26 -17 32 -35 11 -35 -33 0 -107 33 -107
47 0 12 8 14 36 10 20 -3 47 -13 60 -22z m-1306 -65 c44 -69 89 -179 90 -218
0 -29 -23 -92 -34 -92 -3 0 -11 -3 -20 -6 -14 -6 -14 -3 0 31 8 20 14 51 12
67 -3 30 -4 29 -33 -23 -36 -63 -67 -81 -133 -77 l-47 3 49 23 c58 27 106 60
106 73 0 5 -22 -2 -50 -16 -27 -14 -74 -34 -103 -45 -53 -20 -97 -52 -97 -71
0 -5 18 0 40 11 32 17 43 18 65 8 14 -6 25 -14 25 -18 0 -3 -20 -16 -45 -28
-38 -18 -45 -26 -45 -51 0 -16 8 -39 19 -52 17 -21 21 -22 50 -9 17 7 38 25
46 39 l14 26 1 -32 c0 -42 -20 -60 -76 -69 -61 -9 -91 6 -114 59 -31 66 -26
94 26 160 31 40 40 57 27 53 -116 -34 -160 -30 -221 23 -32 28 -33 29 -13 36
12 3 67 -3 124 -15 116 -25 164 -19 214 26 l28 24 -53 -20 c-63 -24 -104 -25
-197 -5 -39 8 -95 15 -125 15 -52 1 -54 2 -35 16 21 16 23 16 227 -2 60 -6 71
-4 111 19 68 40 81 62 21 36 -43 -18 -59 -20 -124 -13 -41 4 -112 8 -158 8
-86 1 -98 8 -62 41 28 25 93 29 189 11 81 -16 86 -15 125 4 23 11 59 38 81 60
21 22 44 40 51 40 7 0 26 -22 44 -50z m1380 -4 c0 -2 -7 -7 -16 -10 -8 -3 -12
-2 -9 4 6 10 25 14 25 6z m-335 -118 c28 -13 30 -20 13 -51 -45 -86 -173 -191
-280 -231 -199 -75 -378 -69 -541 16 -93 50 -156 135 -112 152 12 4 12 11 -6
41 -12 19 -17 35 -12 35 6 0 43 -33 84 -73 65 -64 82 -75 139 -92 82 -23 223
-23 311 -1 102 26 197 76 288 149 46 37 85 67 87 67 2 0 15 -5 29 -12z m283
-14 c17 -3 32 -9 32 -15 0 -12 -100 -1 -155 17 -40 13 -39 13 25 8 36 -3 80
-7 98 -10z m-1888 -110 c0 -20 5 -24 28 -24 51 0 71 -46 31 -73 -23 -17 -58
-12 -76 11 -13 16 -18 104 -7 115 12 11 24 -3 24 -29z m1980 26 c0 -12 -17
-12 -45 0 -17 7 -15 9 13 9 17 1 32 -3 32 -9z m305 -43 c16 -12 11 -15 -45
-20 -74 -8 -86 -3 -39 17 43 19 60 19 84 3z m-1867 -168 c2 -15 -4 -32 -14
-39 -14 -12 -18 -12 -30 5 -26 36 -16 68 21 63 13 -2 21 -12 23 -29z m-607
-234 c-44 -99 -155 -240 -405 -512 -177 -194 -253 -263 -288 -263 -16 0 -17 3
-7 23 7 12 29 41 50 64 22 24 39 47 39 53 0 5 6 10 13 10 17 0 287 272 372
375 36 44 97 126 136 182 88 129 132 162 90 68z m1664 6 c-7 -27 -15 -53 -18
-58 -15 -24 -48 -231 -64 -398 -14 -152 -18 -284 -18 -658 0 -257 -3 -467 -7
-467 -10 0 -9 -38 -14 435 -3 220 0 557 6 749 12 389 13 394 80 428 19 10 38
18 42 18 3 0 0 -22 -7 -49z m-1507 -1 c17 -11 32 -24 32 -30 0 -6 -20 -20 -45
-32 -55 -27 -68 -18 -59 40 8 48 22 53 72 22z m931 -20 c31 -16 46 -56 81
-212 64 -288 105 -553 120 -778 6 -85 15 -213 20 -285 5 -71 9 -170 8 -220 -1
-74 -3 -57 -15 95 -17 241 -47 492 -79 660 -13 74 -31 171 -39 215 -24 128
-84 333 -127 430 -56 128 -56 126 -20 116 16 -5 39 -14 51 -21z m402 -21 c18
-18 21 -30 17 -77 -6 -70 -40 -104 -122 -123 -52 -11 -60 -11 -106 11 -66 31
-82 50 -88 109 -3 40 -1 52 17 70 31 31 63 26 101 -16 l34 -37 35 42 c41 48
78 55 112 21z m993 -1 c8 -30 7 -99 0 -165 -6 -47 -10 -53 -30 -53 -32 0 -113
37 -120 54 -9 23 24 81 75 136 52 56 66 61 75 28z m-2444 -37 c0 -10 8 -29 18
-41 17 -22 19 -22 50 -6 17 9 33 16 37 16 11 0 4 -59 -8 -72 -24 -23 -121 -86
-144 -93 -22 -6 -23 -4 -23 47 0 29 5 71 11 93 16 60 59 101 59 56z m205 -38
c-9 -49 -67 -176 -126 -278 -25 -44 -65 -116 -89 -160 -114 -209 -269 -415
-312 -415 -30 0 -22 46 15 87 96 109 348 499 445 690 31 62 61 113 66 113 4 0
5 -17 1 -37z m-313 -219 c2 -1 22 3 43 11 54 19 65 18 65 -4 0 -65 -74 -136
-173 -166 l-47 -14 0 38 c0 53 19 151 36 184 8 15 25 32 37 36 20 8 23 5 29
-36 4 -25 8 -47 10 -49z m1568 85 c0 -21 -61 -68 -96 -75 -19 -3 -58 -4 -86
-2 -43 5 -57 11 -82 39 -35 39 -23 48 35 25 51 -21 103 -19 159 4 52 22 70 24
70 9z m834 -119 c56 -111 61 -134 36 -175 -12 -19 -24 -35 -26 -35 -3 0 -2 5
1 10 3 6 -11 43 -33 83 -44 80 -56 129 -46 184 6 34 8 35 21 17 8 -10 29 -48
47 -84z m136 45 l30 -15 -26 -40 c-26 -40 -26 -40 -54 -23 -40 23 -53 56 -32
77 20 20 45 20 82 1z m-1004 -43 c25 -17 34 -52 27 -109 -5 -45 -13 -64 -35
-87 -27 -26 -33 -28 -81 -23 -28 4 -63 15 -77 25 -53 40 -65 158 -18 183 18
10 25 7 53 -27 33 -39 33 -39 54 -20 12 11 21 24 21 31 0 26 33 43 56 27z
m-1697 -91 c10 -7 12 -21 7 -59 l-6 -50 46 14 c68 20 75 19 68 -13 -9 -41 -52
-76 -137 -111 -109 -46 -111 -45 -104 31 8 83 33 153 64 177 28 22 41 24 62
11z m2524 -90 c15 -27 27 -55 27 -62 0 -8 -20 -45 -45 -82 l-44 -68 -7 36 c-4
21 -4 69 0 108 12 134 25 146 69 68z m-803 -62 c0 -6 -13 -24 -29 -40 -36 -35
-90 -39 -138 -9 -50 30 -42 42 25 35 39 -4 69 -2 97 9 22 8 41 15 43 15 1 1 2
-4 2 -10z m-1900 -59 c6 -11 5 -31 -1 -55 -6 -20 -8 -40 -4 -43 3 -3 25 0 48
7 23 7 59 15 80 18 36 5 37 4 37 -25 0 -37 -37 -75 -96 -98 -81 -31 -194 -1
-202 54 -10 67 61 177 107 165 12 -3 26 -13 31 -23z m1780 -75 c13 -14 29 -25
35 -25 7 0 17 11 23 25 16 34 38 31 58 -7 37 -71 -8 -158 -82 -158 -30 0 -38
6 -64 47 -31 49 -38 90 -20 124 14 25 22 24 50 -6z m1013 -57 c41 -48 7 -118
-58 -118 -61 0 -94 57 -64 111 22 42 89 46 122 7z m-2928 -69 c41 -19 66 -52
51 -67 -4 -3 -45 -8 -92 -10 l-86 -5 7 34 c16 74 42 84 120 48z m881 -274 c51
-63 56 -84 43 -188 -6 -50 -14 -98 -17 -108 -4 -10 -39 -55 -79 -101 -40 -46
-98 -121 -130 -168 -32 -47 -62 -84 -67 -83 -5 1 -21 31 -36 67 -15 35 -43 84
-62 108 -19 24 -54 77 -79 118 -38 65 -44 81 -43 130 1 65 13 90 109 230 40
58 87 132 105 165 60 108 52 110 143 -18 44 -62 95 -130 113 -152z m-1058 180
c3 -40 4 -41 37 -37 85 10 0 -67 -119 -108 l-56 -19 0 52 c0 58 28 129 57 146
10 6 32 10 48 8 27 -2 30 -5 33 -42z m2165 25 l51 0 -20 -20 c-31 -32 -83 -36
-117 -10 -36 29 -35 44 4 36 17 -3 54 -6 82 -6z m807 -78 c28 -34 25 -59 -10
-94 -25 -24 -36 -29 -58 -23 -43 10 -62 34 -62 75 0 74 84 102 130 42z m-756
-28 c13 -33 6 -101 -11 -116 -41 -35 -126 -26 -137 15 -10 40 -6 84 9 97 18
15 21 13 33 -19 l8 -24 35 31 c38 35 54 39 63 16z m-2404 -113 c10 -39 11 -39
36 -26 34 18 54 9 54 -23 0 -35 -111 -143 -162 -159 -21 -6 -39 -8 -41 -5 -2
4 0 51 3 105 6 83 11 101 30 122 13 14 34 25 46 25 19 0 25 -8 34 -39z m3034
-22 c33 -26 36 -79 6 -109 -30 -30 -83 -27 -109 6 -28 35 -26 69 4 99 30 30
64 32 99 4z m-671 -41 c41 3 45 -3 20 -30 -30 -34 -123 -13 -123 28 0 12 7 14
33 8 17 -4 49 -7 70 -6z m-1726 -110 c29 -31 53 -69 53 -83 0 -4 -42 -50 -93
-103 -51 -54 -110 -122 -132 -152 -58 -82 -86 -110 -112 -110 -30 0 -85 28
-78 39 2 5 34 14 70 21 36 7 65 15 65 19 0 3 -18 33 -40 66 -22 33 -40 63 -40
67 0 3 35 4 79 1 51 -4 81 -2 85 5 4 6 -5 39 -19 73 -14 34 -25 65 -25 67 0 3
38 2 85 -2 l85 -7 0 24 c0 14 -7 43 -15 66 -17 49 -9 52 32 9z m1775 -13 c10
-39 -8 -102 -32 -115 -51 -27 -110 25 -110 96 0 47 16 58 40 29 18 -21 43 -19
58 6 17 26 34 20 44 -16z m498 -45 c43 -43 9 -130 -50 -130 -42 0 -80 35 -80
74 0 67 83 103 130 56z m-3070 -25 c0 -40 4 -41 49 -19 53 27 79 -13 47 -74
-25 -47 -134 -142 -163 -142 -31 0 -45 172 -19 235 13 31 19 35 50 35 34 0 36
-2 36 -35z m2127 -110 c75 -53 177 -116 227 -141 122 -61 141 -59 278 33 106
71 138 88 138 74 0 -25 -180 -144 -253 -167 -50 -15 -54 -15 -106 5 -122 46
-384 214 -419 269 -8 12 -12 22 -8 22 3 0 68 -43 143 -95z m-1219 42 c2 -11
-21 -43 -61 -85 -35 -37 -88 -101 -117 -142 -29 -41 -60 -80 -69 -87 -23 -18
-71 -16 -71 2 0 35 143 230 216 294 51 45 96 53 102 18z m1629 -21 c39 7 44
-8 8 -24 -40 -18 -83 -15 -95 7 -15 29 -13 30 22 20 18 -5 48 -6 65 -3z
m-1574 -28 c6 -19 -20 -67 -62 -113 -20 -23 -64 -75 -99 -118 -47 -59 -68 -77
-87 -77 -29 0 -31 10 -9 52 20 39 151 195 199 237 39 34 51 38 58 19z m1990
-50 c41 -48 7 -118 -58 -118 -59 0 -93 58 -64 111 22 42 89 46 122 7z m-387
-13 c4 -8 0 -23 -7 -32 -20 -23 -77 -45 -99 -38 -24 8 -35 42 -19 61 10 13 15
12 37 -2 23 -15 26 -15 45 5 25 25 36 26 43 6z m-2688 -78 c4 -42 14 -45 57
-17 17 11 42 20 58 20 22 0 27 -4 27 -25 0 -52 -58 -124 -129 -160 -34 -17
-35 -17 -52 4 -23 28 -42 123 -34 161 15 68 68 80 73 17z m2944 -94 c29 -26
24 -87 -8 -112 -15 -12 -33 -21 -40 -21 -26 0 -62 23 -73 47 -16 34 -14 47 10
77 24 31 81 36 111 9z m-2454 -55 c2 -25 -2 -37 -12 -41 -13 -5 -16 2 -16 39
0 55 23 57 28 2z"/>
<path d="M230 3975 c0 -16 6 -25 15 -25 8 0 15 -1 16 -2 0 -2 26 -145 57 -318
57 -313 58 -315 82 -315 25 0 25 2 82 315 31 173 61 316 67 318 6 2 11 15 11
28 0 21 -4 24 -40 24 -36 0 -40 -2 -40 -25 0 -16 6 -25 15 -25 8 0 15 -6 15
-14 0 -22 -70 -400 -78 -419 -5 -12 -22 64 -48 203 -32 175 -37 223 -27 227 7
3 13 16 13 29 0 23 -3 24 -70 24 -68 0 -70 -1 -70 -25z"/>
<path d="M670 3404 l0 -509 132 -145 c137 -151 235 -276 270 -343 l20 -40 28
51 c41 76 139 197 310 382 185 200 286 333 340 444 121 249 79 485 -108 605
-60 38 -162 65 -222 58 -163 -19 -312 -155 -336 -307 l-7 -43 -14 53 c-43 170
-177 286 -344 298 l-69 5 0 -509z"/>
<path d="M304 3180 c-12 -5 -29 -19 -38 -32 -34 -48 -12 -115 66 -204 24 -27
55 -63 69 -80 l25 -31 65 75 c89 104 109 139 109 190 0 83 -89 124 -145 67
-14 -13 -25 -28 -25 -34 0 -5 -15 6 -34 25 -35 35 -54 40 -92 24z"/>
<path d="M2895 3465 c-81 -14 -134 -35 -154 -58 -12 -15 -11 -17 5 -17 9 0 51
11 91 25 40 14 108 28 151 31 72 6 81 4 135 -24 62 -34 74 -28 27 12 -56 46
-125 55 -255 31z"/>
<path d="M2883 3361 c-26 -16 -33 -30 -43 -77 -14 -67 -13 -69 74 -80 80 -10
112 -6 165 17 24 10 46 19 49 19 2 0 2 -18 -1 -40 -3 -22 -2 -40 3 -40 15 0
41 71 38 103 -3 29 -10 36 -88 74 -96 48 -146 54 -197 24z m148 -17 c14 -7 31
-20 39 -29 12 -14 10 -15 -16 -4 -33 12 -130 15 -165 4 -22 -7 -23 -7 -8 16
26 39 88 44 150 13z m-75 -49 c-21 -16 -32 -13 -21 4 3 6 14 11 23 11 15 -1
15 -2 -2 -15z m49 -55 c-27 -29 -95 -25 -95 6 0 10 7 13 23 9 12 -3 36 -1 52
3 38 11 43 7 20 -18z m61 4 c-4 -9 -9 -15 -11 -12 -3 3 -3 13 1 22 4 9 9 15
11 12 3 -3 3 -13 -1 -22z"/>
<path d="M2313 3349 c-33 -10 -82 -61 -64 -67 6 -2 26 9 45 23 26 20 51 28 96
32 33 3 63 10 66 14 7 12 -102 10 -143 -2z"/>
<path d="M2501 3279 l20 -52 -31 27 c-46 38 -92 33 -147 -17 -36 -33 -29 -54
8 -23 46 39 107 48 117 19 2 -9 -9 -13 -36 -13 -34 0 -45 -6 -76 -40 -35 -39
-47 -70 -26 -70 6 0 10 -6 10 -14 0 -16 26 -46 41 -46 5 0 2 11 -6 24 -15 23
-15 24 16 30 57 11 88 7 101 -13 9 -14 16 -17 24 -10 13 11 18 -12 30 -136 7
-74 17 -102 43 -122 19 -15 93 -17 106 -4 6 5 35 18 65 28 50 16 55 21 58 50
4 38 -13 73 -34 73 -13 0 -13 -2 0 -22 9 -12 16 -32 16 -44 0 -21 -3 -22 -36
-12 -33 9 -39 7 -81 -26 -26 -20 -52 -36 -58 -36 -40 0 -64 100 -65 272 0 106
-15 178 -41 207 -32 34 -38 24 -18 -30z m-86 -88 c-3 -6 -11 -11 -17 -11 -6 0
-6 6 2 15 14 17 26 13 15 -4z m25 -46 c-14 -16 -70 -21 -70 -6 0 6 15 12 33
14 17 2 36 5 41 5 5 1 3 -5 -4 -13z"/>
<path d="M2890 3176 c0 -2 8 -10 18 -17 15 -13 16 -12 3 4 -13 16 -21 21 -21
13z"/>
<path d="M2775 2780 c-83 -8 -145 -32 -145 -56 0 -11 -6 -15 -20 -11 -25 6
-28 -21 -3 -30 9 -4 64 6 123 20 59 15 119 27 135 27 23 0 26 3 21 23 -3 12
-6 25 -6 30 0 8 0 8 -105 -3z m25 -29 c0 -11 -149 -45 -158 -37 -10 11 12 25
53 35 53 12 105 13 105 2z"/>
<path d="M2791 2653 c-21 -8 -55 -13 -83 -11 -48 3 -63 -4 -32 -16 41 -16 153
6 162 32 5 15 -4 14 -47 -5z"/>
<path d="M2750 2576 c-29 -10 -36 -18 -38 -44 -2 -18 1 -32 7 -32 6 0 11 6 11
14 0 23 60 60 94 58 24 -2 27 0 16 8 -19 13 -47 11 -90 -4z"/>
<path d="M3125 2520 c-3 -5 -1 -10 4 -10 6 0 11 5 11 10 0 6 -2 10 -4 10 -3 0
-8 -4 -11 -10z"/>
<path d="M3091 2504 c0 -11 3 -14 6 -6 3 7 2 16 -1 19 -3 4 -6 -2 -5 -13z"/>
<path d="M3001 2474 c0 -11 3 -14 6 -6 3 7 2 16 -1 19 -3 4 -6 -2 -5 -13z"/>
<path d="M2948 2474 c-5 -4 -8 -16 -8 -28 0 -14 3 -17 11 -9 6 6 9 19 7 28 -1
9 -6 13 -10 9z"/>
<path d="M3740 2622 c0 -6 16 -14 35 -18 19 -3 55 -20 80 -36 25 -17 47 -29
49 -27 9 9 -15 49 -37 64 -30 20 -127 33 -127 17z"/>
<path d="M2400 2618 c0 -7 5 -20 10 -28 8 -12 10 -9 10 13 0 15 -4 27 -10 27
-5 0 -10 -6 -10 -12z"/>
<path d="M3435 2520 c-27 -30 -11 -35 21 -6 21 18 24 25 13 26 -9 0 -24 -9
-34 -20z"/>
<path d="M3349 2441 c-13 -11 -20 -23 -16 -27 4 -4 17 2 29 14 28 28 18 38
-13 13z"/>
<path d="M2622 2393 c2 -10 11 -19 21 -21 24 -5 21 15 -4 28 -18 10 -20 9 -17
-7z"/>
<path d="M3218 2369 c-24 -13 -23 -29 1 -29 21 0 45 23 34 33 -8 9 -15 8 -35
-4z"/>
<path d="M2722 2319 c2 -7 10 -15 17 -17 8 -3 12 1 9 9 -2 7 -10 15 -17 17 -8
3 -12 -1 -9 -9z"/>
<path d="M3075 2310 c-3 -6 5 -10 19 -10 14 0 28 5 31 10 3 6 -5 10 -19 10
-14 0 -28 -4 -31 -10z"/>
<path d="M2835 2290 c-4 -6 5 -10 20 -10 15 0 24 4 20 10 -3 6 -12 10 -20 10
-8 0 -17 -4 -20 -10z"/>
<path d="M2955 2290 c3 -5 17 -10 31 -10 14 0 22 4 19 10 -3 6 -17 10 -31 10
-14 0 -22 -4 -19 -10z"/>
<path d="M3985 1190 c-9 -15 14 -40 31 -33 22 8 18 43 -5 43 -11 0 -23 -5 -26
-10z"/>
<path d="M3853 974 c-3 -8 -1 -20 6 -27 14 -14 47 15 37 32 -10 16 -36 13 -43
-5z"/>
<path d="M3740 790 c0 -13 7 -20 20 -20 13 0 20 7 20 20 0 13 -7 20 -20 20
-13 0 -20 -7 -20 -20z"/>
<path d="M3604 595 c-4 -9 -2 -21 4 -27 15 -15 44 -1 40 19 -4 23 -36 29 -44
8z"/>
<path d="M3485 410 c-9 -15 14 -40 31 -33 22 8 18 43 -5 43 -11 0 -23 -5 -26
-10z"/>
<path d="M3357 216 c-8 -20 20 -43 35 -28 14 14 3 42 -16 42 -7 0 -16 -6 -19
-14z"/>
<path d="M4110 1371 c0 -26 17 -36 35 -21 18 15 8 40 -16 40 -12 0 -19 -7 -19
-19z"/>
<path d="M1332 110 c0 -14 2 -19 5 -12 2 6 2 18 0 25 -3 6 -5 1 -5 -13z"/>
<path d="M1097 94 c-11 -11 -8 -94 3 -94 13 0 24 65 13 84 -5 9 -12 13 -16 10z"/>
<path d="M1277 63 c-13 -12 -7 -53 7 -53 20 0 39 27 32 45 -6 15 -28 20 -39 8z"/>
<path d="M3253 33 c-21 -7 -15 -33 7 -33 11 0 20 6 20 14 0 18 -11 25 -27 19z"/>
</g>
</svg>
